<svg version="1.0" xmlns="http://www.w3.org/2000/svg" viewBox="0 0 300.000000 313.000000">
    <defs>
        <style>
            .gray-path { fill: #a9a9a9; }
            .orange-path { fill: #f56821; }
        </style>
    </defs>
    <g transform="translate(0.000000,313.000000) scale(0.100000,-0.100000)" stroke="none">
        <!-- Gray Paths -->
        <path class="gray-path"
            d="M2265 3038 c-55 -16 -109 -30 -120 -33 -11 -2 -87 -22 -170 -45 -134 -37 -290 -78 -600 -157 -55 -14 -104 -30 -109 -34 -5 -4 -3 -33 5 -68 10 -47 17 -60 29 -56 8 2 51 14 95 25 44 12 154 41 245 66 394 106 622 165 625 162 4 -5 48 -163 105 -383 131 -500 157 -595 162 -601 4 -4 129 23 146 32 1 0 -7 28 -17 62 -16 50 -71 246 -87 311 -2 9 -40 151 -85 316 -44 165 -82 307 -83 315 -1 9 -5 20 -8 25 -3 6 -9 27 -13 48 -4 20 -10 39 -14 40 -3 2 -51 -9 -106 -25z" />
        <path class="gray-path"
            d="M2000 2538 c-36 -10 -74 -20 -85 -23 -21 -5 -124 -34 -215 -60 -30 -9 -66 -18 -80 -20 -14 -3 -59 -14 -100 -26 -41 -11 -85 -22 -96 -24 -39 -5 -66 -25 -59 -43 3 -9 9 -29 12 -43 l5 -26 81 22 c45 12 136 36 202 54 66 17 167 44 225 60 58 16 108 26 112 22 4 -3 19 -51 33 -106 15 -55 36 -134 47 -175 11 -41 35 -133 53 -203 19 -71 35 -130 37 -132 2 -2 24 2 48 9 53 16 53 -5 -7 216 -25 91 -56 206 -69 255 -13 50 -32 121 -43 160 -11 38 -18 72 -15 76 2 4 -2 11 -9 16 -8 6 -35 3 -77 -9z" />
        <path class="gray-path"
            d="M1849 2195 c-3 -2 -97 -29 -209 -60 -112 -30 -204 -56 -205 -57 -6 -7 16 -48 25 -48 6 0 87 20 179 45 92 25 172 45 177 45 5 0 18 -33 28 -72 58 -231 80 -298 95 -298 39 1 41 13 15 105 -14 50 -40 145 -58 212 -31 120 -38 138 -47 128z" />
        <path class="gray-path"
            d="M1660 1928 c-148 -42 -170 -51 -170 -64 0 -8 6 -14 13 -14 12 0 90 20 135 34 15 5 22 3 22 -6 0 -16 -98 -180 -114 -190 -6 -4 -4 -10 7 -14 24 -9 30 -2 85 97 26 45 52 83 57 83 6 1 18 -34 29 -76 17 -71 34 -95 50 -70 8 14 -56 232 -68 231 -6 -1 -27 -6 -46 -11z" />
        <path class="gray-path"
            d="M1265 1429 c-44 -11 -88 -21 -98 -24 -9 -2 -21 -6 -25 -9 -5 -3 -19 -7 -33 -10 -37 -8 -178 -45 -234 -61 -48 -14 -93 -24 -125 -29 -9 -1 -20 -5 -26 -9 -9 -5 -30 -11 -124 -32 -56 -13 -159 -50 -182 -66 -14 -11 -34 -40 -44 -65 l-17 -45 51 -187 c51 -183 102 -372 157 -582 15 -58 34 -117 42 -132 19 -38 62 -76 95 -83 18 -4 117 18 295 66 147 39 350 93 450 119 195 51 223 63 254 113 24 38 21 96 -9 197 -11 36 -20 68 -21 72 -1 4 -4 13 -6 20 -3 7 -11 40 -19 73 -8 33 -26 101 -41 150 -14 50 -32 119 -41 155 -8 36 -16 72 -19 80 -2 8 -16 58 -30 110 -51 183 -97 216 -250 179z" />

        <!-- Orange Paths -->
        <path class="orange-path"
            d="M910 2691 c-36 -10 -153 -42 -260 -71 -576 -154 -565 -150 -598 -197 -27 -39 -34 -76 -23 -120 45 -185 234 -861 247 -883 19 -31 80 -70 111 -70 10 0 111 25 223 55 113 31 273 73 355 95 83 22 193 52 246 66 99 26 136 50 163 102 19 38 14 78 -28 229 -20 72 -39 142 -42 155 -7 29 -10 39 -17 58 -3 8 -22 78 -42 155 -97 373 -104 392 -158 425 -39 24 -91 24 -177 1z" />
        <path class="orange-path"
            d="M2490 1766 c-153 -42 -311 -84 -525 -140 -246 -65 -284 -81 -324 -136 -37 -52 -39 -42 32 -300 33 -123 36 -135 43 -155 2 -5 22 -82 45 -170 22 -88 51 -199 64 -247 27 -104 54 -150 99 -172 47 -22 61 -21 220 23 78 21 213 58 301 81 358 95 451 122 473 136 12 8 32 35 44 59 25 51 29 24 -55 335 -79 291 -106 390 -138 514 -32 122 -46 148 -92 176 -41 25 -82 24 -187 -4z" />
    </g>
</svg>